<svg width="105" height="105" fill="none" xmlns="http://www.w3.org/2000/svg"><path d="M19.425 21.72V11.28c.131-.84.787-1.44 1.706-1.44h76.257c.262 0 .524 0 .787.12.788.24 1.313.84 1.313 1.56v63.24c0 3.12-1.182 5.76-3.544 8.04-1.838 1.68-3.938 2.76-6.563 3.24-.918.12-1.706.24-2.625.24H14.437c-2.756 0-4.856-.96-6.562-2.88-1.05-1.08-1.575-2.4-2.1-3.84-.394-1.32-.525-2.64-.656-4.08v-52.2c.131-.96 1.05-1.56 1.706-1.56h11.681c.394 0 .657.12.919 0zm3.675-8.4v62.16c0 .84-.131 1.8-.263 2.64-.262 1.56-.918 3.12-1.837 4.44 0 0 0 .12-.131.24h65.887c.525 0 1.05 0 1.575-.12 2.888-.48 4.988-1.92 6.431-4.2.657-1.2 1.05-2.52 1.05-3.84V13.32h-.262c-2.494-.12-71.794-.12-72.45 0zM19.425 25.2c-.394-.12-6.3-.12-9.844 0h-.393c-.132.24 0 .48 0 .6v49.56c0 .96.13 1.92.393 2.88s.657 1.8 1.181 2.64c.394.6.92 1.08 1.444 1.44 1.313.84 2.757.84 4.2 0 .657-.36 1.313-.96 1.707-1.56.393-.6.787-1.32 1.05-2.16.393-1.08.393-2.28.393-3.36v-49.8c-.131-.12-.131-.12-.131-.24z" fill="#E3E3E3"/><path d="M27.956 36.72h30.057v18.96H27.956V36.72zm1.575 41.16c-.131-.36-.131-4.8 0-5.28h60.244v5.28H29.531zm60.375-16.92c.131.48.131 4.92 0 5.28H29.531v-5.16h.132c20.08-.12 40.162-.12 60.243-.12zM63.788 54.6c-.132-.36-.132-4.8 0-5.28h26.249v5.28h-26.25zm26.118-17.04c.131.48.131 4.8 0 5.28h-26.25v-5.16H89.12c.394-.12.525-.12.787-.12zm-52.237-7.08l-.656-1.56h-3.675l-.657 1.56H29.27l4.462-11.04h2.888l4.462 11.04H37.67zm-2.494-6.96l-.919 2.88h1.969l-1.05-2.88zm14.175 6.96h-6.825V19.44h6.3c.262 0 .525 0 .656.12.263 0 .525.12.657.24.262.12.393.24.656.36.262.12.394.24.525.48.262.24.525.6.656.96s.262.72.262 1.08c0 .48-.13.84-.262 1.2-.131.36-.394.72-.788 1.08.263.12.394.24.657.48.131.24.393.36.525.6.131.24.262.48.262.72.132.24.132.48.132.72 0 .36-.132.84-.263 1.2s-.394.72-.656.96c-.263.24-.657.48-1.05.72-.525.12-1.05.12-1.444.12zm-1.575-8.76h-2.231V24h2.231c.394 0 .656-.12.919-.36.262-.24.393-.48.393-.84s-.13-.6-.393-.84-.525-.24-.919-.24zm.131 4.2h-2.231v2.28h2.231c.394 0 .657-.12.919-.36s.394-.48.394-.84-.132-.6-.394-.84c-.263-.12-.525-.24-.919-.24zm11.944 4.92c-.919 0-1.706-.12-2.494-.48-.787-.36-1.444-.72-2.1-1.2-.525-.48-1.05-1.2-1.444-1.92-.393-.72-.524-1.44-.524-2.28 0-.84.13-1.56.525-2.28.393-.72.787-1.32 1.443-1.92a5.816 5.816 0 012.1-1.2c.788-.36 1.575-.48 2.494-.48.919 0 1.706.12 2.494.48.787.36 1.444.72 2.1 1.2.525.48 1.05 1.2 1.444 1.92.393.72.524 1.44.524 2.28 0 .84-.13 1.56-.525 2.28-.393.72-.787 1.32-1.443 1.92a5.82 5.82 0 01-2.1 1.2c-.788.36-1.706.48-2.494.48zm0-8.88c-.394 0-.919.12-1.313.24-.393.12-.787.36-1.05.72-.262.24-.525.6-.656.96s-.262.72-.262 1.2c0 .36.131.84.262 1.2s.394.72.656.96c.263.24.657.48 1.05.72.394.12.788.24 1.313.24.394 0 .919-.12 1.313-.24.393-.12.787-.36 1.05-.72.262-.24.524-.6.656-.96.131-.36.262-.72.262-1.2 0-.36-.131-.84-.262-1.2a2.593 2.593 0 00-.657-.96c-.262-.24-.656-.48-1.05-.72-.524-.12-.918-.24-1.312-.24zm17.719 4.56c0 .48-.132.96-.263 1.44s-.394.84-.787 1.2c-.394.36-.657.72-1.181.96-.394.24-.92.48-1.444.6-.263.12-.525.12-.657.12h-1.312c-.263 0-.525-.12-.656-.12a5.08 5.08 0 01-1.444-.6c-.394-.24-.788-.6-1.181-.96-.394-.36-.525-.72-.788-1.2-.131-.48-.262-.96-.262-1.44v-7.08h3.281v6.84c0 .24 0 .36.131.6.132.12.263.36.394.48s.394.24.525.36c.263.12.394.12.656.12.263 0 .394 0 .656-.12.263-.12.394-.12.526-.36.13-.12.262-.24.393-.48.131-.12.131-.36.131-.6v-6.84H77.7l-.131 7.08zm11.944-4.32H86.23v8.4h-3.28v-8.4h-3.281l-.263-.24v-2.52h10.369v2.52l-.263.24z" fill="#E3E3E3"/></svg>