<svg width="105" height="105" fill="none" xmlns="http://www.w3.org/2000/svg"><path d="M28.613 53.216L49.874 68.25c2.888 2.028 3.281 5.847.919 8.233-5.906 6.085-17.588 15.034-29.663 9.545C8.4 80.182 6.562 68.37 19.95 53.932c2.231-2.267 6.038-2.625 8.663-.716zm48.825-45.46C63 9.426 44.361 19.568 33.861 35.796c-3.15 4.892-5.38 9.903-.262 13.124l22.313 15.99c4.725 3.101 12.337 1.192 16.275-2.745 9.45-9.665 21.13-21.955 22.18-39.017.132-2.625-.655-17.182-16.93-15.392z" stroke="#E3E3E3" stroke-width="2" stroke-miterlimit="10"/><path d="M74.287 49.636a6.488 6.488 0 01-1.575 1.67c-2.756 2.149-6.037 1.433-9.318.836 0 0 2.494-.239 2.756-1.91.262-1.789-3.281-2.863-4.463-2.266 0 0 .263-2.148-2.1-2.625-2.1-.358-5.118 1.312-5.118 1.312s1.312-2.983.393-4.653c-1.05-2.028-3.412-1.432-3.412-1.432.394-1.312-1.575-4.057-3.413-3.34-1.837.596-1.443 2.863-1.443 2.863-1.444-2.625-3.019-5.37-1.444-8.352.263-.597.919-1.313 1.444-1.79 2.625-1.91 6.431-.716 7.612-.477.919.238 4.069 1.193 4.069 1.193s-3.15 2.148-2.625 3.58c.656 1.55 3.675 2.505 3.675 2.505l3.938-3.58L63 35.318l1.575 1.074 2.231-.835-2.887 4.415s1.837 2.505 3.675 2.505c1.575.12 3.15-3.102 3.15-3.102s1.837 2.506 2.231 3.34c.525 1.194 2.756 4.058 1.313 6.921z" stroke="#E3E3E3" stroke-miterlimit="10"/></svg>