<svg width="105" height="105" fill="none" xmlns="http://www.w3.org/2000/svg"><path d="M80.08 51.24c-1.12 0-2.1.98-2.1 2.1V83.3H60.9V64.82c0-1.12-.98-2.1-2.1-2.1H45.5c-1.12 0-2.1.98-2.1 2.1v14c0 1.12.98 2.1 2.1 2.1s2.1-.98 2.1-2.1V66.78h9.1v16.38H26.88V42.84L52.64 22.4l26.18 21c.98.7 2.24.56 2.94-.28.7-.98.56-2.24-.28-2.94L54.04 18.06c-.7-.7-1.82-.7-2.52 0l-28 22.12c-.42.42-.84.98-.84 1.68v43.4c0 1.12.98 2.1 2.1 2.1h55.3c1.12 0 2.1-.98 2.1-2.1V53.2c.14-1.12-.84-1.96-2.1-1.96z" fill="#E3E3E3"/></svg>