<svg width="110" height="110" fill="none" xmlns="http://www.w3.org/2000/svg"><g clip-path="url(#clip0_30_77)"><path d="M104.225 52.112c-2.337-10.037-13.475-13.75-16.912-15.4-2.75-1.375-11.963-4.4-11.963-4.4s3.163 11.413-.962 13.888c-4.675 2.887-13.75 0-13.75 0l-2.063-16.775L55 35.475h-5.5l-3.575-6.05L43.862 46.2s-9.075 2.887-13.75 0c-4.124-2.613-.962-13.888-.962-13.888s-9.212 3.026-11.962 4.4C13.75 38.5 2.613 42.075.274 52.112c-.412 2.2-.137 4.813.275 7.013 1.925 10.45 11.413 14.713 19.938 18.838 0 0-5.226-4.95-2.2-9.9 3.024-4.95 13.337-1.376 14.85 2.337 0 0 3.85-5.913 10.175-2.888 5.637 2.75 8.662 12.788 8.662 12.788s3.575-10.037 9.212-12.787C67.65 64.487 71.362 70.4 71.362 70.4c1.65-3.85 11.826-7.288 14.85-2.338 3.025 4.95-2.2 9.9-2.2 9.9 8.8-4.262 18.013-8.25 19.938-18.837.413-2.2.688-4.813.275-7.013z" stroke="#E3E3E3" stroke-width="2" stroke-miterlimit="10" stroke-linecap="square"/></g><defs><clipPath id="clip0_30_77"><path fill="#fff" d="M0 0h110v110H0z"/></clipPath></defs></svg>