<svg width="110" height="110" fill="none" xmlns="http://www.w3.org/2000/svg"><path d="M77.55 23.65H32.175L13.2 42.625l40.975 42.213 42.35-42.213L77.55 23.65zM98.313 42.9l-44 43.313-.413-.413-42.625-42.9L31.9 22.55h46.475L98.313 42.9z" fill="#E3E3E3"/><path d="M71.912 43.587l-11 7.975 4.4 12.925-11-7.974-11 7.974 4.126-12.924-11-7.976H50.05l4.125-12.925L58.3 43.588h13.612z" fill="#E3E3E3"/><path d="M83.737 15.813H26.264L1.788 40.287l52.25 53.9 53.9-53.9-24.2-24.474z" stroke="#E3E3E3" stroke-miterlimit="10"/><path d="M54.038 85.938L11.275 42.9 31.9 22.688h46.338L98.313 42.9l-44 43.313-.276-.275z" stroke="#E3E3E3" stroke-miterlimit="10"/><path d="M32.175 23.65L13.2 42.625l40.975 42.213 42.35-42.213L77.55 23.65H32.175z" stroke="#E3E3E3" stroke-miterlimit="10"/><path d="M65.313 64.487l-11-7.974-11 7.974 4.124-12.924-11-7.976H50.05l4.125-12.925L58.3 43.588h13.612l-11 7.975 4.4 12.925z" stroke="#E3E3E3" stroke-miterlimit="10"/></svg>