<svg width="110" height="110" fill="none" xmlns="http://www.w3.org/2000/svg"><path d="M95.7 87.95l-48.538 6.014-14.3-7.517c-8.387-5.012-14.437-9.648-15.95-11.401 1.788.25 6.326 1.753 17.325 9.646.688.752 1.925 1.504 4.675 1.504 1.788 0 3.988-.376 6.463-1.128 1.65-.5 3.3-.751 4.95-.751 4.262 0 7.012 1.503 7.012 1.503l.55.376 2.063-3.007-.55-.376c-.137-.125-3.712-2.004-9.075-2.004-2.063 0-4.125.25-6.188.877-2.474.751-4.124.877-5.224.877 1.512-1.379 3.712-3.007 6.462-4.01 1.375-.5 3.025-.751 4.813-.751 3.162 0 5.912.626 6.187.751.825.251 1.65-.125 2.2-.751 0 0 3.162-4.385 8.25-5.638 4.813-.877 8.525-.501 10.862 1.128 2.2 1.503 2.475 3.633 2.475 3.758.138.877.963 1.629 1.925 1.629h13.888V75.17H83.6c-.412-1.253-1.375-3.132-3.575-4.636-3.3-2.255-7.838-2.881-14.025-1.754-4.95 1.128-8.25 4.385-9.763 6.14-1.375-.251-3.575-.627-5.912-.627-2.338 0-4.538.376-6.325 1.002-3.85 1.378-7.013 3.884-8.663 5.638-10.45-7.392-17.05-10.399-20.487-9.271-1.375.501-1.925 1.378-2.063 1.754-.412 1.127-1.65 4.385 17.875 15.911L45.65 97.22c.275.125.688.25.962.25h.276l48.675-6.013h.687l-.55-3.508zM54.725 1.503c-21.45 0-39.05 14.659-39.05 32.825 0 18.166 17.463 32.825 39.05 32.825 21.587 0 39.05-14.659 39.05-32.825 0-18.166-17.6-32.825-39.05-32.825zM89.787 37.46c-.275-.125-.412-.501-.687-.752l-.137-.375c-.413-.627-.825-1.379-1.375-1.88-.413-.376-1.238-.751-2.2-1.253-1.1-.5-3.026-1.503-3.163-2.13 0-.25-.412-.5-.688-.5-.275 0-.55.375-.55.626.138 1.128.55 2.004 1.1 3.007.275.626.55 1.127.825 1.879 0 .25.138.501.138.752 0 .751.138 1.503.963 2.13.137.125.825.25 1.374.375.138 2.38-.687 3.759-2.2 4.51-1.1.502-1.237 1.128-1.1 1.755 0 .25 0 .626-.137 1.127-.138.501-.55.877-.963 1.378-.687.627-1.374 1.504-.687 2.631.275.376.413.752.413 1.003 0 .375-.275.751-.688 1.127-.55.752-.963 1.754-1.375 2.756-.138.251-.275.502-.275.752-1.237.877-2.475 1.754-3.85 2.506-.275-.126-.55-.126-.963-.25-2.062-.878-3.85-2.632-4.537-4.386-.138-.376-.138-.751-.138-1.127v-1.128c-.137-.877-.687-1.629-1.237-2.255-.138-.125-.275-.376-.413-.501-.412-.627-.687-1.504-.137-1.88l.138-.125c.275-.25.687-.5.687-1.002 0-.25-.138-.501-.275-.752-.275-.25-.825-.5-1.238-.376h-.55c-.274 0-.412 0-.55.126v-.126c0-.25 0-.5-.412-.751-.413-.376-.825-.376-1.238-.376h-.412c-.825-.125-1.65-.25-2.337-.25-2.338-.251-3.85-.377-5.225-2.882-.138-.126-.138-.25-.138-.376 0-.125.138-.25.138-.501l.137-.126c.275-.626.55-1.378.688-2.004.137-.626.275-1.253.55-1.754.825-1.503 3.712-3.633 5.5-4.26.962-.375 1.787-.375 2.474-.125.825.25 1.375.877 1.375 1.503 0 .251.275.502.55.502 1.65 0 2.75-.627 3.713-1.253.825-.501 1.513-.877 2.475-1.002h.825c1.788 0 3.575.125 5.225.375.825.126 1.65-.5 2.475-1.127.275-.25.55-.376.688-.501 1.237-.752 2.475-1.378 2.337-3.258 0-1.002-.825-1.754-1.513-2.38-.687-.501-1.1-1.003-1.1-1.629.138-.125.413-.125.55 0 .275.125.55.376.826.752.137.125.137.25.275.376.687.751 1.512 1.002 2.337.751.138 0 .275-.125.412-.25.138-.376.276-.752.276-1.128 1.787 3.633 2.887 7.517 2.887 11.652.275.25.275 1.378.137 2.38zm-5.5-19.168h-.55c-1.1 0-1.924.375-2.474 1.127l-.413.752c-.137.25-.275.626-.55.752-.138 0-.138.125-.275.125-.275.125-.55.25-.688.626-.137.25-.137.501-.137.627v.125c0 .125-.138.25-.138.376-.137 0-.275-.125-.412-.125-.413 0-.963.25-1.1.5-.275.502-.275 1.003-.138 1.504 0 .25.138.501.138.627-.412-.251-.688-.627-.962-.878-.138-.125-.275-.125-.413-.125-.138 0-.275 0-.412.125l-.413.376-.55-1.002c0-.25-.138-.501-.412-.752-.276-.25-.688-.25-.963-.25s-.55 0-.825-.125c-1.512-.251-3.712-.502-4.4 1.252-.138.376-.275.752-.275 1.128 0 .125 0 .376-.138.501-.275 1.253-1.512 2.38-2.887 2.38-.688 0-1.375-.375-1.788-.877-.275-.375-.55-.751-.412-1.252.412-.126.825-.25 1.375-.25.138 0 .138 0 .275-.126.413-.25.688-.627.688-1.128 0-.752-.55-1.503-1.375-2.004-.138-.126-.275-.126-.55-.25-.688-.377-1.376-.627-1.376-1.254-.137-.376.276-.877.688-1.378.413-.501.825-1.002.963-1.754.137-.626-.138-1.253-.413-1.754-.275-.626-.413-1.127-.275-1.378a1.89 1.89 0 01.55-.376c.963-.626 3.162-3.508 2.888-5.136-.138-.627-.55-1.003-1.238-1.128-1.513-.25-2.2 1.378-2.613 2.63-.274.627-.687 1.63-.962 1.755 0 0-.138 0-.275-.125 0-.877-.137-1.754-.275-2.506a.419.419 0 00-.413-.376c-.137 0-.412 0-.55.125l-1.924 1.378c-.276.251-.688.502-1.1.502-.275 0-.55 0-.55-.25 0-.126 0-.377.137-.627.825-1.88 1.237-3.759 1.375-5.763 11 1.127 20.763 6.138 26.537 13.656zM39.462 7.642c-.55.877-1.787 1.754-2.2 2.005-2.062 1.253-2.887 2.881-2.75 5.011v.376c0 .125-.137.25-.275.376L33 16.663c-.138.125-.138.25-.138.501.138.626.825.626 1.1.626h.138s.137.126 0 .376c-.138 1.003-.55 1.88-1.1 2.882-.825 1.378-1.65 2.756-1.1 4.51 0 .125.138.25.138.501.137.376.275.627.137.877-.137.627-1.237 1.253-2.2 1.754-.688.376-1.375.752-1.925 1.128-.825.877-.963 1.127-.688 2.004 0 .126 0 .25.138.376a9.65 9.65 0 00-1.512-1.754c-.276-.125-.55-.376-.963-.376-.275 0-.412 0-.55.126-.963.25-1.788.877-2.613 1.503-.687.501-1.237 1.002-1.924 1.253-.138 0-.275.125-.275.125-.138 0-.276.125-.413.125.688-11.4 8.8-20.922 20.212-25.558zm-19.8 30.069c.413 0 .963-.126 1.238-.126.413-.125.688-.125.963-.125l-.413.376c-.412.376-.825.752-.825 1.253-.137.501 0 1.127 1.1 1.88.275.124.412.375.688.5.412.376.962.877 1.787 1.002l.413.126c.687.125 1.375.25 1.787.626.275.25.413.752.55 1.253.137.501.275 1.002.55 1.378.688 1.002 1.788 1.378 2.887 1.754.413.126.963.376 1.375.501a8.786 8.786 0 011.788 1.253c.963.752 1.925 1.504 3.163 1.754.137 0 .274 0 .274.126-.55 2.13-1.237 4.76-2.75 6.765-7.975-4.51-13.337-11.902-14.575-20.296zM35.2 58.758c1.65-2.255 2.337-4.886 2.887-7.14 0-.126.138-.377 0-.627-.137-.501-.825-.752-1.237-.752-.962-.25-1.788-.877-2.613-1.503-.687-.501-1.237-1.002-2.062-1.378-.412-.25-.962-.376-1.512-.627-.963-.376-1.788-.626-2.338-1.378-.137-.25-.275-.752-.412-1.128-.138-.626-.276-1.252-.826-1.754-.687-.626-1.512-.877-2.337-1.002l-.413-.125c-.55-.125-.825-.376-1.237-.752l-.688-.626c-.274-.126-.687-.501-.687-.877 0-.125.275-.501.55-.627.413-.375.825-.877.688-1.378-.138-.376-.276-.626-.826-.751-.687-.251-1.375-.126-1.787 0-.55.125-.825.125-1.1 0 0-.752-.137-1.504-.137-2.13l.274-.25c.138-.126.276-.126.55-.126.138 0 .275-.125.413-.125.962-.251 1.65-.877 2.337-1.378.688-.502 1.375-1.003 2.2-1.253l.276.125c.687.501 1.237 1.128 1.512 1.88.137.375.412 1.127 1.238 1.252.687.125.962-.125 1.1-.376.412-.501.137-1.253-.138-1.754 0-.125-.137-.125-.137-.125 0-.25-.138-.376-.138-.627-.138-.5-.138-.5.412-1.002.276-.376.963-.626 1.65-1.002 1.238-.627 2.613-1.378 2.75-2.506.138-.5-.137-1.002-.274-1.378 0-.125-.138-.25-.138-.376-.413-1.253.275-2.505.962-3.758.55-1.003 1.238-2.13 1.238-3.258 0-.751-.275-1.253-.825-1.503l.55-.627c.138-.125.413-.375.55-.751a.984.984 0 000-.877c-.138-1.754.55-2.882 2.2-4.01 1.788-1.127 2.75-2.38 2.888-3.382 4.262-1.503 8.8-2.38 13.75-2.38H56.1c-.138 1.879-.55 3.633-1.375 5.387-.138.376-.413.752-.138 1.253.275.751 1.1 1.002 1.925.877.688-.126 1.1-.502 1.513-.752l1.238-.877c.137.626.137 1.128.137 1.754 0 .125 0 .25.138.376.55.5.962.626 1.512.5.825-.124 1.238-1.252 1.788-2.38.412-1.002.825-2.13 1.375-2.004.275 0 .412.125.412.376.275 1.002-1.513 3.508-2.475 4.134-.275.126-.413.25-.688.501-.687.752-.275 1.629 0 2.38.138.502.413.878.413 1.379 0 .376-.413.752-.688 1.253-.412.626-.962 1.253-.825 2.13.138 1.002 1.238 1.503 1.925 1.879.138.125.276.125.413.25.412.251.825.752.825 1.128 0 .125 0 .125-.137.25-.55.126-1.238.251-1.788.376-.138 0-.275.25-.413.376-.274.752 0 1.629.688 2.38.688.752 1.65 1.253 2.612 1.253 1.788 0 3.576-1.378 3.988-3.132 0-.25.138-.375.138-.626 0-.376.137-.627.275-.877.412-.877 1.65-.877 3.3-.627.275 0 .687.126.962.126h.275s0 .125.138.25l.55 2.005c0 .25.275.376.412.376.275 0 .412 0 .55-.25.138-.251.412-.502.55-.752l.825.751c.138.125.412.25.825.25.275 0 .55-.25.688-.5.275-.502.137-1.128.137-1.504 0-.25-.137-.626 0-.752l.138-.125c.137.125.137.25.412.25h.412c.55-.25.826-.75.963-1.252v-.501s.137-.126.275-.25c.138-.126.275-.126.413-.251.412-.25.687-.752.825-1.128.137-.25.137-.376.275-.501.275-.376.962-.626 1.65-.626.412 0 .962 0 1.375.125.137.125.137.25.275.376.55 1.253.687 2.38.412 3.257-.275 0-.55-.25-.688-.501-.137-.125-.137-.25-.275-.25a3.164 3.164 0 00-1.237-1.003c-.55-.25-1.237-.25-1.65 0-.412.25-.688.501-.688 1.002 0 1.003.826 1.754 1.513 2.38.55.502 1.1 1.003 1.1 1.63 0 1.252-.55 1.628-1.787 2.255-.276.125-.55.375-.963.626-.412.25-1.1.877-1.375.877-1.787-.376-3.712-.376-5.5-.501h-1.1c-1.237.125-2.2.752-3.025 1.253-.825.5-1.512.877-2.475 1.002-.275-.877-1.1-1.629-2.2-2.005-.962-.25-2.2-.25-3.438.126-2.062.752-5.224 3.007-6.187 4.76-.412.627-.55 1.379-.688 2.13-.137.627-.275 1.253-.55 1.754v.126c-.137.25-.274.626-.274 1.002s.137.626.275.877c1.65 3.007 3.712 3.257 6.187 3.508.688.125 1.513.125 2.2.25h.412c.276 0 .413 0 .55.126 0 .25 0 .877.825 1.127.413.126.688 0 1.1 0h.688l-.138.126c-.137 0-.137.125-.275.125-.962.877-.825 2.38 0 3.383.138.125.276.375.413.5.412.627.962 1.128 1.1 1.755v.877c0 .5 0 1.002.138 1.628.687 2.13 2.75 4.01 5.224 5.012-5.362 2.756-11.687 4.385-18.424 4.385-6.876.376-13.476-1.378-19.113-4.51zm45.1-4.26c.275-.5.413-.876.688-1.252.412-.501.825-1.002.825-1.754 0-.626-.276-1.253-.55-1.629-.276-.376-.138-.626.55-1.378.412-.5.962-1.002 1.237-1.754.275-.626.138-1.127.138-1.503 0-.376 0-.376.55-.627 2.2-1.127 3.025-3.257 2.75-6.514 0-.251-.275-.502-.688-.502-.275 0-.412.126-.55.376-.275 0-.55-.125-.688-.125-.275-.25-.412-.626-.412-1.253 0-.376 0-.626-.138-1.002a32.803 32.803 0 00-.825-2.005c-.137-.125-.137-.376-.275-.5.55.375 1.238.626 1.788 1.001a19.23 19.23 0 011.925 1.003c.412.376.825 1.002 1.1 1.628l.275.376c.275.627.825 1.128 1.513 1.378-.963 6.265-4.4 11.777-9.213 16.037z" fill="#E3E3E3"/><path d="M57.2 19.67c.275 0 .412 0 .688-.126 1.1-.375 1.925-1.503 1.925-2.63-.138-1.253-1.513-1.88-2.338-1.88-.413 0-.688.125-.825.376-.137.125-.275.376 0 .752 0 .125.138.25.275.376.138.125.138.25.138.375 0 .251-.138.502-.413.752l-.137.125c-.55.627-.413 1.128-.276 1.379.138.375.413.5.963.5zm.137-1.504c.275-.376.688-.877.55-1.378 0-.25-.275-.501-.412-.626l-.138-.126c.413 0 1.375.376 1.375 1.128 0 .752-.55 1.503-1.237 1.754-.275.125-.55 0-.55 0 0-.125 0-.25.413-.752l-.413-.125.413.125zM30.8 35.706c-.55-.125-1.238-.25-1.788-.376-.137 0-.274 0-.412-.125-.275 0-.55-.125-.963-.125-.55 0-1.1.25-1.512.626 0 0-.275.125-.275.376 0 .25 0 .501.412.752.688.5 1.513 1.002 2.476 1.253h.412c.688 0 2.75-.251 3.025-1.253.275-.752-.825-1.003-1.375-1.128zm-1.512 1.504h-.276c-.687-.126-1.375-.502-1.925-1.003.138-.125.413-.125.688-.125.138 0 .413 0 .688.125.137 0 .274 0 .412.126.413.125 1.1.125 1.65.375.413.126.55.126.688.251-.276 0-1.1.25-1.925.25z" fill="#E3E3E3"/></svg>